<mxfile host="app.diagrams.net" modified="2023-08-29T12:44:18.430Z" agent="Mozilla/5.0 (Windows NT 10.0; Win64; x64; rv:109.0) Gecko/20100101 Firefox/116.0" etag="B4FDQMkkYRLHlJDNUGNF" version="21.6.9" type="device">
  <diagram name="Page-1" id="5UtJk_xfQEQTXHQaAqwe">
    <mxGraphModel dx="1834" dy="1126" grid="0" gridSize="10" guides="1" tooltips="1" connect="1" arrows="1" fold="1" page="0" pageScale="1" pageWidth="1100" pageHeight="850" math="0" shadow="0">
      <root>
        <mxCell id="0" />
        <mxCell id="1" parent="0" />
        <mxCell id="MtlIt6yfHSOycYd4frSq-72" value="" style="rounded=1;whiteSpace=wrap;html=1;gradientColor=none;gradientDirection=south;fillStyle=solid;fillColor=#dae8fc;" parent="1" vertex="1">
          <mxGeometry x="100" y="549.55" width="340" height="70.45" as="geometry" />
        </mxCell>
        <mxCell id="MtlIt6yfHSOycYd4frSq-1" value="" style="shape=mxgraph.cisco.buildings.branch_office;html=1;pointerEvents=1;dashed=0;fillColor=#036897;strokeColor=#ffffff;strokeWidth=2;verticalLabelPosition=bottom;verticalAlign=top;align=center;outlineConnect=0;" parent="1" vertex="1">
          <mxGeometry x="10" width="30" height="40" as="geometry" />
        </mxCell>
        <mxCell id="MtlIt6yfHSOycYd4frSq-5" style="edgeStyle=orthogonalEdgeStyle;rounded=0;orthogonalLoop=1;jettySize=auto;html=1;exitX=0.5;exitY=1;exitDx=0;exitDy=0;" parent="1" edge="1">
          <mxGeometry relative="1" as="geometry">
            <mxPoint x="45" y="60" as="sourcePoint" />
            <mxPoint x="45" y="60" as="targetPoint" />
          </mxGeometry>
        </mxCell>
        <mxCell id="MtlIt6yfHSOycYd4frSq-11" value="Site_01&lt;br&gt;&lt;br&gt;SRM_01&lt;br&gt;&lt;br&gt;VCSA_01" style="rounded=0;whiteSpace=wrap;html=1;fontSize=9;" parent="1" vertex="1">
          <mxGeometry x="90" y="40" width="95" height="70" as="geometry" />
        </mxCell>
        <mxCell id="MtlIt6yfHSOycYd4frSq-25" value="" style="shape=table;startSize=0;container=1;collapsible=0;childLayout=tableLayout;fontSize=9;" parent="1" vertex="1">
          <mxGeometry x="10" y="40" width="80" height="70" as="geometry" />
        </mxCell>
        <mxCell id="MtlIt6yfHSOycYd4frSq-26" value="" style="shape=tableRow;horizontal=0;startSize=0;swimlaneHead=0;swimlaneBody=0;strokeColor=inherit;top=0;left=0;bottom=0;right=0;collapsible=0;dropTarget=0;fillColor=none;points=[[0,0.5],[1,0.5]];portConstraint=eastwest;" parent="MtlIt6yfHSOycYd4frSq-25" vertex="1">
          <mxGeometry width="80" height="23" as="geometry" />
        </mxCell>
        <mxCell id="MtlIt6yfHSOycYd4frSq-27" value="Name&lt;span style=&quot;white-space: pre;&quot;&gt;&#x9;&lt;/span&gt;" style="shape=partialRectangle;html=1;whiteSpace=wrap;connectable=0;strokeColor=inherit;overflow=hidden;fillColor=none;top=0;left=0;bottom=0;right=0;pointerEvents=1;" parent="MtlIt6yfHSOycYd4frSq-26" vertex="1">
          <mxGeometry width="80" height="23" as="geometry">
            <mxRectangle width="80" height="23" as="alternateBounds" />
          </mxGeometry>
        </mxCell>
        <mxCell id="MtlIt6yfHSOycYd4frSq-28" value="" style="shape=tableRow;horizontal=0;startSize=0;swimlaneHead=0;swimlaneBody=0;strokeColor=inherit;top=0;left=0;bottom=0;right=0;collapsible=0;dropTarget=0;fillColor=none;points=[[0,0.5],[1,0.5]];portConstraint=eastwest;fontSize=8;" parent="MtlIt6yfHSOycYd4frSq-25" vertex="1">
          <mxGeometry y="23" width="80" height="24" as="geometry" />
        </mxCell>
        <mxCell id="MtlIt6yfHSOycYd4frSq-29" value="SRM Server" style="shape=partialRectangle;html=1;whiteSpace=wrap;connectable=0;strokeColor=inherit;overflow=hidden;fillColor=none;top=0;left=0;bottom=0;right=0;pointerEvents=1;" parent="MtlIt6yfHSOycYd4frSq-28" vertex="1">
          <mxGeometry width="80" height="24" as="geometry">
            <mxRectangle width="80" height="24" as="alternateBounds" />
          </mxGeometry>
        </mxCell>
        <mxCell id="MtlIt6yfHSOycYd4frSq-30" value="" style="shape=tableRow;horizontal=0;startSize=0;swimlaneHead=0;swimlaneBody=0;strokeColor=inherit;top=0;left=0;bottom=0;right=0;collapsible=0;dropTarget=0;fillColor=none;points=[[0,0.5],[1,0.5]];portConstraint=eastwest;" parent="MtlIt6yfHSOycYd4frSq-25" vertex="1">
          <mxGeometry y="47" width="80" height="23" as="geometry" />
        </mxCell>
        <mxCell id="MtlIt6yfHSOycYd4frSq-31" value="VCSA" style="shape=partialRectangle;html=1;whiteSpace=wrap;connectable=0;strokeColor=inherit;overflow=hidden;fillColor=none;top=0;left=0;bottom=0;right=0;pointerEvents=1;" parent="MtlIt6yfHSOycYd4frSq-30" vertex="1">
          <mxGeometry width="80" height="23" as="geometry">
            <mxRectangle width="80" height="23" as="alternateBounds" />
          </mxGeometry>
        </mxCell>
        <mxCell id="MtlIt6yfHSOycYd4frSq-32" value="Protected Site" style="text;html=1;align=center;verticalAlign=middle;resizable=0;points=[];autosize=1;strokeColor=none;fillColor=none;" parent="1" vertex="1">
          <mxGeometry x="35" y="10" width="100" height="30" as="geometry" />
        </mxCell>
        <mxCell id="MtlIt6yfHSOycYd4frSq-34" value="" style="image;aspect=fixed;perimeter=ellipsePerimeter;html=1;align=center;shadow=0;dashed=0;spacingTop=3;image=img/lib/active_directory/user.svg;" parent="1" vertex="1">
          <mxGeometry y="150" width="18.5" height="50" as="geometry" />
        </mxCell>
        <mxCell id="MtlIt6yfHSOycYd4frSq-35" value="" style="endArrow=classic;html=1;rounded=0;" parent="1" edge="1">
          <mxGeometry width="50" height="50" relative="1" as="geometry">
            <mxPoint x="23.5" y="185.57" as="sourcePoint" />
            <mxPoint x="68.5" y="185.57" as="targetPoint" />
          </mxGeometry>
        </mxCell>
        <mxCell id="MtlIt6yfHSOycYd4frSq-36" value="TCP 9443" style="text;html=1;align=center;verticalAlign=middle;resizable=0;points=[];autosize=1;strokeColor=none;fillColor=none;fontSize=8;" parent="1" vertex="1">
          <mxGeometry x="18.5" y="158.57" width="60" height="20" as="geometry" />
        </mxCell>
        <mxCell id="MtlIt6yfHSOycYd4frSq-44" style="edgeStyle=orthogonalEdgeStyle;rounded=0;orthogonalLoop=1;jettySize=auto;html=1;exitX=0.5;exitY=1;exitDx=0;exitDy=0;entryX=1.03;entryY=0.62;entryDx=0;entryDy=0;entryPerimeter=0;fontColor=#66B2FF;fillColor=#0050ef;strokeColor=#6a81ff;" parent="1" edge="1">
          <mxGeometry relative="1" as="geometry">
            <mxPoint x="127.48" y="420" as="targetPoint" />
            <mxPoint x="137.48" y="220" as="sourcePoint" />
            <Array as="points">
              <mxPoint x="152.48" y="220" />
              <mxPoint x="152.48" y="420" />
            </Array>
          </mxGeometry>
        </mxCell>
        <mxCell id="MtlIt6yfHSOycYd4frSq-58" style="edgeStyle=orthogonalEdgeStyle;rounded=0;orthogonalLoop=1;jettySize=auto;html=1;exitX=0.5;exitY=1;exitDx=0;exitDy=0;entryX=1.03;entryY=0.62;entryDx=0;entryDy=0;entryPerimeter=0;fontColor=#66B2FF;fillColor=#0050ef;strokeColor=#6a81ff;dashed=1;" parent="1" source="MtlIt6yfHSOycYd4frSq-39" edge="1">
          <mxGeometry relative="1" as="geometry">
            <mxPoint x="390" y="320" as="targetPoint" />
            <Array as="points">
              <mxPoint x="170" y="320" />
            </Array>
          </mxGeometry>
        </mxCell>
        <mxCell id="MtlIt6yfHSOycYd4frSq-39" value="SRM Plugin" style="rounded=1;whiteSpace=wrap;html=1;fontSize=7;labelBackgroundColor=none;fillColor=#f0a30a;strokeColor=#BD7000;fontColor=#FFFFFF;" parent="1" vertex="1">
          <mxGeometry x="110" y="200" width="70" height="20" as="geometry" />
        </mxCell>
        <mxCell id="MtlIt6yfHSOycYd4frSq-41" value="SRM Database" style="text;html=1;align=center;verticalAlign=middle;resizable=0;points=[];autosize=1;strokeColor=none;fillColor=none;fontSize=7;" parent="1" vertex="1">
          <mxGeometry x="-5" y="320" width="70" height="20" as="geometry" />
        </mxCell>
        <mxCell id="MtlIt6yfHSOycYd4frSq-56" style="edgeStyle=none;rounded=0;orthogonalLoop=1;jettySize=auto;html=1;fillColor=#f0a30a;strokeColor=#ffa620;" parent="1" edge="1">
          <mxGeometry relative="1" as="geometry">
            <mxPoint x="105.1" y="389.64886255924176" as="sourcePoint" />
            <mxPoint x="390" y="340" as="targetPoint" />
            <Array as="points">
              <mxPoint x="105" y="340" />
            </Array>
          </mxGeometry>
        </mxCell>
        <mxCell id="MtlIt6yfHSOycYd4frSq-42" value="" style="sketch=0;pointerEvents=1;shadow=0;dashed=0;html=1;strokeColor=none;fillColor=blue;aspect=fixed;labelPosition=center;verticalLabelPosition=bottom;verticalAlign=top;align=center;outlineConnect=0;shape=mxgraph.vvd.virtual_machine;fillStyle=solid;gradientColor=#3399FF;" parent="1" vertex="1">
          <mxGeometry x="78.5" y="389" width="50" height="50" as="geometry" />
        </mxCell>
        <mxCell id="MtlIt6yfHSOycYd4frSq-45" value="TCP 9086 " style="text;html=1;align=center;verticalAlign=middle;resizable=0;points=[];autosize=1;strokeColor=none;fillColor=none;rotation=-90;fontSize=9;" parent="1" vertex="1">
          <mxGeometry x="110" y="263" width="60" height="20" as="geometry" />
        </mxCell>
        <mxCell id="MtlIt6yfHSOycYd4frSq-46" value="" style="endArrow=classic;html=1;rounded=0;" parent="1" edge="1">
          <mxGeometry width="50" height="50" relative="1" as="geometry">
            <mxPoint x="30" y="420" as="sourcePoint" />
            <mxPoint x="30" y="380" as="targetPoint" />
          </mxGeometry>
        </mxCell>
        <mxCell id="MtlIt6yfHSOycYd4frSq-47" value="" style="endArrow=none;html=1;rounded=0;entryX=0.03;entryY=0.62;entryDx=0;entryDy=0;entryPerimeter=0;" parent="1" target="MtlIt6yfHSOycYd4frSq-42" edge="1">
          <mxGeometry width="50" height="50" relative="1" as="geometry">
            <mxPoint x="30" y="420" as="sourcePoint" />
            <mxPoint x="65" y="414" as="targetPoint" />
          </mxGeometry>
        </mxCell>
        <mxCell id="MtlIt6yfHSOycYd4frSq-48" value="TCP 1433" style="text;html=1;align=center;verticalAlign=middle;resizable=0;points=[];autosize=1;strokeColor=none;fillColor=none;rotation=-90;fontSize=8;" parent="1" vertex="1">
          <mxGeometry x="-10" y="404" width="60" height="20" as="geometry" />
        </mxCell>
        <mxCell id="MtlIt6yfHSOycYd4frSq-50" value="" style="shadow=0;dashed=0;html=1;strokeColor=none;fillColor=#4495D1;labelPosition=center;verticalLabelPosition=bottom;verticalAlign=top;align=center;outlineConnect=0;shape=mxgraph.veeam.2d.web_ui;" parent="1" vertex="1">
          <mxGeometry x="95.10000000000002" y="155.2" width="44.8" height="44.8" as="geometry" />
        </mxCell>
        <mxCell id="MtlIt6yfHSOycYd4frSq-38" value="Web Client" style="rounded=1;whiteSpace=wrap;html=1;fontSize=7;labelBackgroundColor=none;fillColor=#f0a30a;strokeColor=#BD7000;fontColor=#FFFFFF;" parent="1" vertex="1">
          <mxGeometry x="87.5" y="150" width="60" height="20" as="geometry" />
        </mxCell>
        <mxCell id="MtlIt6yfHSOycYd4frSq-51" value="" style="sketch=0;pointerEvents=1;shadow=0;dashed=0;html=1;strokeColor=none;fillColor=#005F4B;labelPosition=center;verticalLabelPosition=bottom;verticalAlign=top;align=center;outlineConnect=0;shape=mxgraph.veeam2.vcenter_server;" parent="1" vertex="1">
          <mxGeometry x="400" y="310" width="40" height="52" as="geometry" />
        </mxCell>
        <mxCell id="MtlIt6yfHSOycYd4frSq-84" style="edgeStyle=none;rounded=0;orthogonalLoop=1;jettySize=auto;html=1;entryX=0.941;entryY=0.29;entryDx=0;entryDy=0;entryPerimeter=0;strokeColor=#6a81ff;exitX=0.496;exitY=1.2;exitDx=0;exitDy=0;exitPerimeter=0;" parent="1" source="MtlIt6yfHSOycYd4frSq-52" edge="1">
          <mxGeometry relative="1" as="geometry">
            <mxPoint x="419.5569693985013" y="401" as="sourcePoint" />
            <mxPoint x="419.50000000000006" y="588.9805000000001" as="targetPoint" />
          </mxGeometry>
        </mxCell>
        <mxCell id="MtlIt6yfHSOycYd4frSq-52" value="VCSA" style="text;html=1;align=center;verticalAlign=top;resizable=0;points=[];autosize=1;strokeColor=none;fillColor=none;fontSize=9;" parent="1" vertex="1">
          <mxGeometry x="399" y="362" width="43" height="23" as="geometry" />
        </mxCell>
        <mxCell id="MtlIt6yfHSOycYd4frSq-59" value="TCP 443" style="text;html=1;align=center;verticalAlign=middle;resizable=0;points=[];autosize=1;strokeColor=none;fillColor=none;fontSize=9;" parent="1" vertex="1">
          <mxGeometry x="90" y="323" width="60" height="20" as="geometry" />
        </mxCell>
        <mxCell id="MtlIt6yfHSOycYd4frSq-60" value="TCP 443" style="text;html=1;align=center;verticalAlign=middle;resizable=0;points=[];autosize=1;strokeColor=none;fillColor=none;fontSize=9;" parent="1" vertex="1">
          <mxGeometry x="210" y="300" width="60" height="20" as="geometry" />
        </mxCell>
        <mxCell id="MtlIt6yfHSOycYd4frSq-61" value="" style="sketch=0;pointerEvents=1;shadow=0;dashed=0;html=1;strokeColor=none;fillColor=blue;aspect=fixed;labelPosition=center;verticalLabelPosition=bottom;verticalAlign=top;align=center;outlineConnect=0;shape=mxgraph.vvd.virtual_machine;fillStyle=solid;gradientColor=#3399FF;" parent="1" vertex="1">
          <mxGeometry x="235" y="389" width="50" height="50" as="geometry" />
        </mxCell>
        <mxCell id="MtlIt6yfHSOycYd4frSq-63" value="" style="verticalLabelPosition=bottom;sketch=0;aspect=fixed;html=1;verticalAlign=top;strokeColor=none;align=center;outlineConnect=0;shape=mxgraph.citrix.1u_2u_server;fontSize=9;" parent="1" vertex="1">
          <mxGeometry x="135" y="560" width="100" height="39.1" as="geometry" />
        </mxCell>
        <mxCell id="MtlIt6yfHSOycYd4frSq-64" value="" style="verticalLabelPosition=bottom;sketch=0;aspect=fixed;html=1;verticalAlign=top;strokeColor=none;align=center;outlineConnect=0;shape=mxgraph.citrix.1u_2u_server;fontSize=9;" parent="1" vertex="1">
          <mxGeometry x="297" y="560" width="100" height="39.1" as="geometry" />
        </mxCell>
        <mxCell id="MtlIt6yfHSOycYd4frSq-74" value="" style="endArrow=oval;html=1;jumpStyle=none;jumpSize=8;shadow=0;endSize=6;strokeWidth=7;rounded=1;startArrow=oval;startFill=0;endFill=0;strokeColor=#ffa620;" parent="1" edge="1">
          <mxGeometry width="50" height="50" relative="1" as="geometry">
            <mxPoint x="110" y="640" as="sourcePoint" />
            <mxPoint x="440" y="640" as="targetPoint" />
          </mxGeometry>
        </mxCell>
        <mxCell id="MtlIt6yfHSOycYd4frSq-77" value="" style="endArrow=none;html=1;rounded=0;entryX=0.479;entryY=1.005;entryDx=0;entryDy=0;entryPerimeter=0;strokeColor=#ffa620;" parent="1" target="MtlIt6yfHSOycYd4frSq-72" edge="1">
          <mxGeometry width="50" height="50" relative="1" as="geometry">
            <mxPoint x="263" y="640" as="sourcePoint" />
            <mxPoint x="290" y="590" as="targetPoint" />
          </mxGeometry>
        </mxCell>
        <mxCell id="MtlIt6yfHSOycYd4frSq-78" value="" style="endArrow=none;html=1;rounded=0;strokeColor=#ffa620;" parent="1" edge="1">
          <mxGeometry width="50" height="50" relative="1" as="geometry">
            <mxPoint x="270" y="640" as="sourcePoint" />
            <mxPoint x="270" y="700" as="targetPoint" />
          </mxGeometry>
        </mxCell>
        <mxCell id="MtlIt6yfHSOycYd4frSq-79" value="" style="endArrow=none;html=1;rounded=0;strokeColor=#ffa620;" parent="1" edge="1">
          <mxGeometry width="50" height="50" relative="1" as="geometry">
            <mxPoint x="369.67" y="640" as="sourcePoint" />
            <mxPoint x="369.67" y="700" as="targetPoint" />
          </mxGeometry>
        </mxCell>
        <mxCell id="MtlIt6yfHSOycYd4frSq-80" value="" style="endArrow=none;html=1;rounded=0;strokeColor=#ffa620;" parent="1" edge="1">
          <mxGeometry width="50" height="50" relative="1" as="geometry">
            <mxPoint x="160" y="640" as="sourcePoint" />
            <mxPoint x="160" y="700" as="targetPoint" />
          </mxGeometry>
        </mxCell>
        <mxCell id="MtlIt6yfHSOycYd4frSq-81" value="" style="shadow=0;dashed=0;html=1;labelPosition=center;verticalLabelPosition=bottom;verticalAlign=top;align=center;outlineConnect=0;shape=mxgraph.veeam.3d.datastore_volume;" parent="1" vertex="1">
          <mxGeometry x="131" y="700" width="54" height="34" as="geometry" />
        </mxCell>
        <mxCell id="MtlIt6yfHSOycYd4frSq-82" value="" style="shadow=0;dashed=0;html=1;labelPosition=center;verticalLabelPosition=bottom;verticalAlign=top;align=center;outlineConnect=0;shape=mxgraph.veeam.3d.datastore_volume;" parent="1" vertex="1">
          <mxGeometry x="243" y="700" width="54" height="34" as="geometry" />
        </mxCell>
        <mxCell id="MtlIt6yfHSOycYd4frSq-83" value="" style="shadow=0;dashed=0;html=1;labelPosition=center;verticalLabelPosition=bottom;verticalAlign=top;align=center;outlineConnect=0;shape=mxgraph.veeam.3d.datastore_volume;" parent="1" vertex="1">
          <mxGeometry x="343" y="700" width="54" height="34" as="geometry" />
        </mxCell>
        <mxCell id="MtlIt6yfHSOycYd4frSq-87" value="vcsa database" style="text;html=1;align=center;verticalAlign=middle;resizable=0;points=[];autosize=1;strokeColor=none;fillColor=none;fontSize=9;" parent="1" vertex="1">
          <mxGeometry x="450" y="310" width="90" height="20" as="geometry" />
        </mxCell>
        <mxCell id="MtlIt6yfHSOycYd4frSq-91" value="" style="endArrow=classic;html=1;rounded=0;" parent="1" source="MtlIt6yfHSOycYd4frSq-51" edge="1">
          <mxGeometry width="50" height="50" relative="1" as="geometry">
            <mxPoint x="420" y="343" as="sourcePoint" />
            <mxPoint x="470" y="293" as="targetPoint" />
            <Array as="points">
              <mxPoint x="420" y="293" />
            </Array>
          </mxGeometry>
        </mxCell>
        <mxCell id="MtlIt6yfHSOycYd4frSq-92" value="" style="outlineConnect=0;dashed=0;verticalLabelPosition=bottom;verticalAlign=top;align=center;html=1;shape=mxgraph.aws3.generic_database;fillColor=#9dd726;gradientColor=none;strokeColor=none;fillStyle=auto;" parent="1" vertex="1">
          <mxGeometry x="480" y="274" width="30" height="36" as="geometry" />
        </mxCell>
        <mxCell id="MtlIt6yfHSOycYd4frSq-93" value="" style="outlineConnect=0;dashed=0;verticalLabelPosition=bottom;verticalAlign=top;align=center;html=1;shape=mxgraph.aws3.generic_database;fillColor=#9dd726;gradientColor=none;strokeColor=none;fillStyle=auto;" parent="1" vertex="1">
          <mxGeometry x="15" y="340" width="30" height="36" as="geometry" />
        </mxCell>
        <mxCell id="MtlIt6yfHSOycYd4frSq-95" value="TCP 1433" style="text;html=1;align=center;verticalAlign=middle;resizable=0;points=[];autosize=1;strokeColor=none;fillColor=none;fontSize=9;" parent="1" vertex="1">
          <mxGeometry x="410" y="274" width="60" height="20" as="geometry" />
        </mxCell>
        <mxCell id="MtlIt6yfHSOycYd4frSq-96" value="" style="outlineConnect=0;dashed=0;verticalLabelPosition=bottom;verticalAlign=top;align=center;html=1;shape=mxgraph.aws3.generic_database;fillColor=#9dd726;gradientColor=none;strokeColor=none;fillStyle=auto;" parent="1" vertex="1">
          <mxGeometry x="690" y="274" width="30" height="36" as="geometry" />
        </mxCell>
        <mxCell id="MtlIt6yfHSOycYd4frSq-97" value="vcsa database" style="text;html=1;align=center;verticalAlign=middle;resizable=0;points=[];autosize=1;strokeColor=none;fillColor=none;fontSize=9;" parent="1" vertex="1">
          <mxGeometry x="657" y="310" width="90" height="20" as="geometry" />
        </mxCell>
        <mxCell id="MtlIt6yfHSOycYd4frSq-98" value="" style="sketch=0;pointerEvents=1;shadow=0;dashed=0;html=1;strokeColor=none;fillColor=#005F4B;labelPosition=center;verticalLabelPosition=bottom;verticalAlign=top;align=center;outlineConnect=0;shape=mxgraph.veeam2.vcenter_server;" parent="1" vertex="1">
          <mxGeometry x="760" y="310" width="40" height="52" as="geometry" />
        </mxCell>
        <mxCell id="MtlIt6yfHSOycYd4frSq-99" value="VCSA" style="text;html=1;align=center;verticalAlign=top;resizable=0;points=[];autosize=1;strokeColor=none;fillColor=none;fontSize=9;" parent="1" vertex="1">
          <mxGeometry x="754" y="362" width="43" height="23" as="geometry" />
        </mxCell>
        <mxCell id="MtlIt6yfHSOycYd4frSq-100" value="" style="endArrow=classic;html=1;rounded=0;" parent="1" edge="1">
          <mxGeometry width="50" height="50" relative="1" as="geometry">
            <mxPoint x="780" y="310" as="sourcePoint" />
            <mxPoint x="730" y="293" as="targetPoint" />
            <Array as="points">
              <mxPoint x="780" y="293" />
            </Array>
          </mxGeometry>
        </mxCell>
        <mxCell id="MtlIt6yfHSOycYd4frSq-101" value="TCP 1433" style="text;html=1;align=center;verticalAlign=middle;resizable=0;points=[];autosize=1;strokeColor=none;fillColor=none;fontSize=9;" parent="1" vertex="1">
          <mxGeometry x="730" y="274" width="60" height="20" as="geometry" />
        </mxCell>
        <mxCell id="MtlIt6yfHSOycYd4frSq-103" value="" style="rounded=1;whiteSpace=wrap;html=1;gradientColor=none;gradientDirection=south;fillStyle=solid;fillColor=#dae8fc;" parent="1" vertex="1">
          <mxGeometry x="760" y="549.55" width="340" height="70.45" as="geometry" />
        </mxCell>
        <mxCell id="MtlIt6yfHSOycYd4frSq-104" value="" style="verticalLabelPosition=bottom;sketch=0;aspect=fixed;html=1;verticalAlign=top;strokeColor=none;align=center;outlineConnect=0;shape=mxgraph.citrix.1u_2u_server;fontSize=9;" parent="1" vertex="1">
          <mxGeometry x="795" y="560" width="100" height="39.1" as="geometry" />
        </mxCell>
        <mxCell id="MtlIt6yfHSOycYd4frSq-105" value="" style="verticalLabelPosition=bottom;sketch=0;aspect=fixed;html=1;verticalAlign=top;strokeColor=none;align=center;outlineConnect=0;shape=mxgraph.citrix.1u_2u_server;fontSize=9;" parent="1" vertex="1">
          <mxGeometry x="957" y="560" width="100" height="39.1" as="geometry" />
        </mxCell>
        <mxCell id="MtlIt6yfHSOycYd4frSq-106" value="" style="endArrow=oval;html=1;jumpStyle=none;jumpSize=8;shadow=0;endSize=6;strokeWidth=7;rounded=1;startArrow=oval;startFill=0;endFill=0;strokeColor=#ffa620;" parent="1" edge="1">
          <mxGeometry width="50" height="50" relative="1" as="geometry">
            <mxPoint x="770" y="640" as="sourcePoint" />
            <mxPoint x="1100" y="640" as="targetPoint" />
          </mxGeometry>
        </mxCell>
        <mxCell id="MtlIt6yfHSOycYd4frSq-107" value="" style="endArrow=none;html=1;rounded=0;entryX=0.479;entryY=1.005;entryDx=0;entryDy=0;entryPerimeter=0;strokeColor=#ffa620;" parent="1" edge="1">
          <mxGeometry width="50" height="50" relative="1" as="geometry">
            <mxPoint x="923" y="640" as="sourcePoint" />
            <mxPoint x="923" y="620" as="targetPoint" />
          </mxGeometry>
        </mxCell>
        <mxCell id="MtlIt6yfHSOycYd4frSq-108" value="" style="endArrow=none;html=1;rounded=0;strokeColor=#ffa620;" parent="1" edge="1">
          <mxGeometry width="50" height="50" relative="1" as="geometry">
            <mxPoint x="930" y="640" as="sourcePoint" />
            <mxPoint x="930" y="700" as="targetPoint" />
          </mxGeometry>
        </mxCell>
        <mxCell id="MtlIt6yfHSOycYd4frSq-109" value="" style="endArrow=none;html=1;rounded=0;strokeColor=#ffa620;" parent="1" edge="1">
          <mxGeometry width="50" height="50" relative="1" as="geometry">
            <mxPoint x="1029.67" y="640" as="sourcePoint" />
            <mxPoint x="1029.67" y="700" as="targetPoint" />
          </mxGeometry>
        </mxCell>
        <mxCell id="MtlIt6yfHSOycYd4frSq-110" value="" style="endArrow=none;html=1;rounded=0;strokeColor=#ffa620;" parent="1" edge="1">
          <mxGeometry width="50" height="50" relative="1" as="geometry">
            <mxPoint x="820" y="640" as="sourcePoint" />
            <mxPoint x="820" y="700" as="targetPoint" />
          </mxGeometry>
        </mxCell>
        <mxCell id="MtlIt6yfHSOycYd4frSq-111" value="" style="shadow=0;dashed=0;html=1;labelPosition=center;verticalLabelPosition=bottom;verticalAlign=top;align=center;outlineConnect=0;shape=mxgraph.veeam.3d.datastore_volume;" parent="1" vertex="1">
          <mxGeometry x="791" y="700" width="54" height="34" as="geometry" />
        </mxCell>
        <mxCell id="MtlIt6yfHSOycYd4frSq-112" value="" style="shadow=0;dashed=0;html=1;labelPosition=center;verticalLabelPosition=bottom;verticalAlign=top;align=center;outlineConnect=0;shape=mxgraph.veeam.3d.datastore_volume;" parent="1" vertex="1">
          <mxGeometry x="903" y="700" width="54" height="34" as="geometry" />
        </mxCell>
        <mxCell id="MtlIt6yfHSOycYd4frSq-113" value="" style="shadow=0;dashed=0;html=1;labelPosition=center;verticalLabelPosition=bottom;verticalAlign=top;align=center;outlineConnect=0;shape=mxgraph.veeam.3d.datastore_volume;" parent="1" vertex="1">
          <mxGeometry x="1003" y="700" width="54" height="34" as="geometry" />
        </mxCell>
        <mxCell id="MtlIt6yfHSOycYd4frSq-114" style="edgeStyle=none;rounded=0;orthogonalLoop=1;jettySize=auto;html=1;entryX=0.941;entryY=0.29;entryDx=0;entryDy=0;entryPerimeter=0;strokeColor=#6a81ff;" parent="1" edge="1">
          <mxGeometry relative="1" as="geometry">
            <mxPoint x="779.6700000000001" y="382" as="sourcePoint" />
            <mxPoint x="779.6700000000001" y="570" as="targetPoint" />
          </mxGeometry>
        </mxCell>
        <mxCell id="MtlIt6yfHSOycYd4frSq-115" value="" style="sketch=0;pointerEvents=1;shadow=0;dashed=0;html=1;strokeColor=none;fillColor=blue;aspect=fixed;labelPosition=center;verticalLabelPosition=bottom;verticalAlign=top;align=center;outlineConnect=0;shape=mxgraph.vvd.virtual_machine;fillStyle=solid;gradientColor=#3399FF;" parent="1" vertex="1">
          <mxGeometry x="895" y="389" width="50" height="50" as="geometry" />
        </mxCell>
        <mxCell id="MtlIt6yfHSOycYd4frSq-133" style="edgeStyle=orthogonalEdgeStyle;rounded=0;orthogonalLoop=1;jettySize=auto;html=1;" parent="1" edge="1">
          <mxGeometry relative="1" as="geometry">
            <mxPoint x="1190" y="389" as="targetPoint" />
            <mxPoint x="1120" y="434" as="sourcePoint" />
            <Array as="points">
              <mxPoint x="1190" y="434" />
            </Array>
          </mxGeometry>
        </mxCell>
        <mxCell id="MtlIt6yfHSOycYd4frSq-116" value="" style="sketch=0;pointerEvents=1;shadow=0;dashed=0;html=1;strokeColor=none;fillColor=blue;aspect=fixed;labelPosition=center;verticalLabelPosition=bottom;verticalAlign=top;align=center;outlineConnect=0;shape=mxgraph.vvd.virtual_machine;fillStyle=solid;gradientColor=#3399FF;" parent="1" vertex="1">
          <mxGeometry x="1075" y="389" width="50" height="50" as="geometry" />
        </mxCell>
        <mxCell id="MtlIt6yfHSOycYd4frSq-117" value="" style="outlineConnect=0;dashed=0;verticalLabelPosition=bottom;verticalAlign=top;align=center;html=1;shape=mxgraph.aws3.generic_database;fillColor=#9dd726;gradientColor=none;strokeColor=none;fillStyle=auto;" parent="1" vertex="1">
          <mxGeometry x="1170" y="340" width="30" height="36" as="geometry" />
        </mxCell>
        <mxCell id="MtlIt6yfHSOycYd4frSq-123" value="" style="shadow=0;dashed=0;html=1;strokeColor=none;fillColor=#4495D1;labelPosition=center;verticalLabelPosition=bottom;verticalAlign=top;align=center;outlineConnect=0;shape=mxgraph.veeam.2d.web_ui;" parent="1" vertex="1">
          <mxGeometry x="1072.6" y="155.2" width="44.8" height="44.8" as="geometry" />
        </mxCell>
        <mxCell id="MtlIt6yfHSOycYd4frSq-124" value="SRM Plugin" style="rounded=1;whiteSpace=wrap;html=1;fontSize=7;labelBackgroundColor=none;fillColor=#f0a30a;strokeColor=#BD7000;fontColor=#FFFFFF;" parent="1" vertex="1">
          <mxGeometry x="1020" y="200" width="70" height="20" as="geometry" />
        </mxCell>
        <mxCell id="MtlIt6yfHSOycYd4frSq-125" value="Web Client" style="rounded=1;whiteSpace=wrap;html=1;fontSize=7;labelBackgroundColor=none;fillColor=#f0a30a;strokeColor=#BD7000;fontColor=#FFFFFF;" parent="1" vertex="1">
          <mxGeometry x="1065" y="150" width="60" height="20" as="geometry" />
        </mxCell>
        <mxCell id="MtlIt6yfHSOycYd4frSq-128" value="" style="image;aspect=fixed;perimeter=ellipsePerimeter;html=1;align=center;shadow=0;dashed=0;spacingTop=3;image=img/lib/active_directory/user.svg;" parent="1" vertex="1">
          <mxGeometry x="1200" y="150" width="18.5" height="50" as="geometry" />
        </mxCell>
        <mxCell id="MtlIt6yfHSOycYd4frSq-129" value="" style="endArrow=classic;html=1;rounded=0;exitX=0.833;exitY=1.172;exitDx=0;exitDy=0;exitPerimeter=0;" parent="1" source="MtlIt6yfHSOycYd4frSq-130" edge="1">
          <mxGeometry width="50" height="50" relative="1" as="geometry">
            <mxPoint x="1180" y="181.9" as="sourcePoint" />
            <mxPoint x="1130" y="182.1" as="targetPoint" />
          </mxGeometry>
        </mxCell>
        <mxCell id="MtlIt6yfHSOycYd4frSq-130" value="TCP 9443" style="text;html=1;align=center;verticalAlign=middle;resizable=0;points=[];autosize=1;strokeColor=none;fillColor=none;fontSize=8;" parent="1" vertex="1">
          <mxGeometry x="1140" y="158.57" width="60" height="20" as="geometry" />
        </mxCell>
        <mxCell id="MtlIt6yfHSOycYd4frSq-134" value="TCP 1433" style="text;html=1;align=center;verticalAlign=middle;resizable=0;points=[];autosize=1;strokeColor=none;fillColor=none;rotation=-90;fontSize=9;" parent="1" vertex="1">
          <mxGeometry x="1170" y="404" width="60" height="20" as="geometry" />
        </mxCell>
        <mxCell id="MtlIt6yfHSOycYd4frSq-135" style="edgeStyle=orthogonalEdgeStyle;rounded=0;orthogonalLoop=1;jettySize=auto;html=1;fontColor=#66B2FF;fillColor=#0050ef;strokeColor=#6a81ff;exitX=0.5;exitY=1;exitDx=0;exitDy=0;" parent="1" source="MtlIt6yfHSOycYd4frSq-124" target="MtlIt6yfHSOycYd4frSq-116" edge="1">
          <mxGeometry relative="1" as="geometry">
            <mxPoint x="1030" y="420" as="targetPoint" />
            <mxPoint x="1055" y="230" as="sourcePoint" />
            <Array as="points">
              <mxPoint x="1055" y="225" />
              <mxPoint x="1055" y="414" />
            </Array>
          </mxGeometry>
        </mxCell>
        <mxCell id="MtlIt6yfHSOycYd4frSq-136" value="TCP 9086 " style="text;html=1;align=center;verticalAlign=middle;resizable=0;points=[];autosize=1;strokeColor=none;fillColor=none;rotation=-90;fontSize=9;" parent="1" vertex="1">
          <mxGeometry x="1040" y="274" width="60" height="20" as="geometry" />
        </mxCell>
        <mxCell id="MtlIt6yfHSOycYd4frSq-137" style="edgeStyle=orthogonalEdgeStyle;rounded=0;orthogonalLoop=1;jettySize=auto;html=1;fontColor=#66B2FF;fillColor=#0050ef;strokeColor=#6a81ff;dashed=1;" parent="1" edge="1">
          <mxGeometry relative="1" as="geometry">
            <mxPoint x="820" y="324" as="targetPoint" />
            <mxPoint x="1030" y="220" as="sourcePoint" />
            <Array as="points">
              <mxPoint x="1030" y="324" />
            </Array>
          </mxGeometry>
        </mxCell>
        <mxCell id="MtlIt6yfHSOycYd4frSq-138" value="TCP 443" style="text;html=1;align=center;verticalAlign=middle;resizable=0;points=[];autosize=1;strokeColor=none;fillColor=none;fontSize=9;" parent="1" vertex="1">
          <mxGeometry x="885" y="300" width="60" height="20" as="geometry" />
        </mxCell>
        <mxCell id="MtlIt6yfHSOycYd4frSq-139" style="edgeStyle=none;rounded=0;orthogonalLoop=1;jettySize=auto;html=1;fillColor=#f0a30a;strokeColor=#ffa620;" parent="1" edge="1">
          <mxGeometry relative="1" as="geometry">
            <mxPoint x="1100.1" y="388.9988625592418" as="sourcePoint" />
            <mxPoint x="820" y="340" as="targetPoint" />
            <Array as="points">
              <mxPoint x="1100" y="339.35" />
            </Array>
          </mxGeometry>
        </mxCell>
        <mxCell id="MtlIt6yfHSOycYd4frSq-140" value="TCP 443" style="text;html=1;align=center;verticalAlign=middle;resizable=0;points=[];autosize=1;strokeColor=none;fillColor=none;fontSize=9;" parent="1" vertex="1">
          <mxGeometry x="1050" y="320" width="60" height="20" as="geometry" />
        </mxCell>
        <mxCell id="MtlIt6yfHSOycYd4frSq-141" value="SRM" style="whiteSpace=wrap;html=1;fillColor=#008a00;fontColor=#ffffff;strokeColor=#005700;" parent="1" vertex="1">
          <mxGeometry x="83.5" y="405" width="40" height="20" as="geometry" />
        </mxCell>
        <mxCell id="MtlIt6yfHSOycYd4frSq-142" value="VRA" style="whiteSpace=wrap;html=1;fillColor=#008a00;fontColor=#ffffff;strokeColor=#005700;" parent="1" vertex="1">
          <mxGeometry x="900" y="404" width="40" height="20" as="geometry" />
        </mxCell>
        <mxCell id="MtlIt6yfHSOycYd4frSq-143" value="VRA" style="whiteSpace=wrap;html=1;fillColor=#008a00;fontColor=#ffffff;strokeColor=#005700;" parent="1" vertex="1">
          <mxGeometry x="240" y="405" width="40" height="20" as="geometry" />
        </mxCell>
        <mxCell id="MtlIt6yfHSOycYd4frSq-144" value="SRM" style="whiteSpace=wrap;html=1;fillColor=#008a00;fontColor=#ffffff;strokeColor=#005700;" parent="1" vertex="1">
          <mxGeometry x="1080" y="404" width="40" height="20" as="geometry" />
        </mxCell>
        <mxCell id="MtlIt6yfHSOycYd4frSq-148" value="" style="endArrow=none;dashed=1;html=1;rounded=0;strokeColor=#ffa620;" parent="1" edge="1">
          <mxGeometry width="50" height="50" relative="1" as="geometry">
            <mxPoint x="259.5" y="500" as="sourcePoint" />
            <mxPoint x="259.5" y="470" as="targetPoint" />
          </mxGeometry>
        </mxCell>
        <mxCell id="MtlIt6yfHSOycYd4frSq-149" value="" style="endArrow=classic;html=1;rounded=0;dashed=1;strokeColor=#ffa620;" parent="1" edge="1">
          <mxGeometry width="50" height="50" relative="1" as="geometry">
            <mxPoint x="100" y="472" as="sourcePoint" />
            <mxPoint x="770" y="382" as="targetPoint" />
            <Array as="points">
              <mxPoint x="100" y="499" />
              <mxPoint x="230" y="499" />
              <mxPoint x="360" y="499" />
              <mxPoint x="360" y="410" />
              <mxPoint x="560" y="410" />
              <mxPoint x="670" y="410" />
              <mxPoint x="770" y="410" />
            </Array>
          </mxGeometry>
        </mxCell>
        <mxCell id="MtlIt6yfHSOycYd4frSq-152" value="" style="endArrow=classic;html=1;rounded=0;strokeColor=#ffa620;dashed=1;" parent="1" edge="1">
          <mxGeometry width="50" height="50" relative="1" as="geometry">
            <mxPoint x="1075" y="475" as="sourcePoint" />
            <mxPoint x="434" y="388" as="targetPoint" />
            <Array as="points">
              <mxPoint x="1075" y="501" />
              <mxPoint x="743" y="501" />
              <mxPoint x="436" y="501" />
              <mxPoint x="436" y="471" />
            </Array>
          </mxGeometry>
        </mxCell>
        <mxCell id="MtlIt6yfHSOycYd4frSq-154" value="" style="endArrow=none;dashed=1;html=1;rounded=0;strokeColor=#ffa620;" parent="1" edge="1">
          <mxGeometry width="50" height="50" relative="1" as="geometry">
            <mxPoint x="920" y="501" as="sourcePoint" />
            <mxPoint x="920" y="470" as="targetPoint" />
          </mxGeometry>
        </mxCell>
        <mxCell id="MtlIt6yfHSOycYd4frSq-156" value="vCenter / ESXi Ports&lt;br style=&quot;font-size: 10px;&quot;&gt;&lt;br style=&quot;font-size: 10px;&quot;&gt;--------------------------&lt;br style=&quot;font-size: 10px;&quot;&gt;TCP/UDP 902, TCP 5988 - 5989, TCP 8000-8001, TCP 80&lt;br style=&quot;font-size: 10px;&quot;&gt;TCP 443, UDP 623, TCP/UDP 6500" style="text;html=1;align=center;verticalAlign=middle;resizable=0;points=[];autosize=1;strokeColor=none;fillColor=none;fontSize=10;fontStyle=1" parent="1" vertex="1">
          <mxGeometry x="432" y="429" width="286" height="72" as="geometry" />
        </mxCell>
        <mxCell id="MtlIt6yfHSOycYd4frSq-158" value="" style="endArrow=classic;html=1;rounded=0;fillColor=#008a00;strokeColor=#005700;strokeWidth=2;" parent="1" edge="1">
          <mxGeometry width="50" height="50" relative="1" as="geometry">
            <mxPoint x="386" y="569" as="sourcePoint" />
            <mxPoint x="937" y="469" as="targetPoint" />
            <Array as="points">
              <mxPoint x="706" y="567" />
              <mxPoint x="706" y="535" />
              <mxPoint x="937" y="535" />
            </Array>
          </mxGeometry>
        </mxCell>
        <mxCell id="MtlIt6yfHSOycYd4frSq-160" value="Initial Replication Port 31031" style="text;html=1;align=center;verticalAlign=middle;resizable=0;points=[];autosize=1;strokeColor=none;fillColor=none;" parent="1" vertex="1">
          <mxGeometry x="481" y="543" width="175" height="26" as="geometry" />
        </mxCell>
        <mxCell id="MtlIt6yfHSOycYd4frSq-161" value="" style="endArrow=classic;html=1;rounded=0;strokeColor=#ffa620;" parent="1" edge="1">
          <mxGeometry width="50" height="50" relative="1" as="geometry">
            <mxPoint x="1099" y="474" as="sourcePoint" />
            <mxPoint x="365" y="545" as="targetPoint" />
            <Array as="points">
              <mxPoint x="1099" y="485" />
              <mxPoint x="1099" y="525" />
              <mxPoint x="365" y="525" />
            </Array>
          </mxGeometry>
        </mxCell>
        <mxCell id="MtlIt6yfHSOycYd4frSq-162" value="TCP/UDP 902" style="text;html=1;align=center;verticalAlign=middle;resizable=0;points=[];autosize=1;strokeColor=none;fillColor=none;fontSize=9;" parent="1" vertex="1">
          <mxGeometry x="823" y="501" width="77" height="23" as="geometry" />
        </mxCell>
        <mxCell id="MtlIt6yfHSOycYd4frSq-163" value="" style="image;aspect=fixed;perimeter=ellipsePerimeter;html=1;align=center;shadow=0;dashed=0;spacingTop=3;image=img/lib/active_directory/internet_cloud.svg;" parent="1" vertex="1">
          <mxGeometry x="479.88" y="599.1" width="250.12" height="157.58" as="geometry" />
        </mxCell>
        <mxCell id="MtlIt6yfHSOycYd4frSq-164" value="" style="shape=mxgraph.cisco.buildings.branch_office;html=1;pointerEvents=1;dashed=0;fillColor=#036897;strokeColor=#ffffff;strokeWidth=2;verticalLabelPosition=bottom;verticalAlign=top;align=center;outlineConnect=0;" parent="1" vertex="1">
          <mxGeometry x="1053" width="30" height="40" as="geometry" />
        </mxCell>
        <mxCell id="MtlIt6yfHSOycYd4frSq-165" style="edgeStyle=orthogonalEdgeStyle;rounded=0;orthogonalLoop=1;jettySize=auto;html=1;exitX=0.5;exitY=1;exitDx=0;exitDy=0;" parent="1" edge="1">
          <mxGeometry relative="1" as="geometry">
            <mxPoint x="1088" y="60" as="sourcePoint" />
            <mxPoint x="1088" y="60" as="targetPoint" />
          </mxGeometry>
        </mxCell>
        <mxCell id="MtlIt6yfHSOycYd4frSq-166" value="Site_02&lt;br&gt;&lt;br&gt;SRM_02&lt;br&gt;&lt;br&gt;VCSA_02" style="rounded=0;whiteSpace=wrap;html=1;fontSize=9;" parent="1" vertex="1">
          <mxGeometry x="1133" y="40" width="95" height="70" as="geometry" />
        </mxCell>
        <mxCell id="MtlIt6yfHSOycYd4frSq-167" value="" style="shape=table;startSize=0;container=1;collapsible=0;childLayout=tableLayout;fontSize=9;" parent="1" vertex="1">
          <mxGeometry x="1053" y="40" width="80" height="70" as="geometry" />
        </mxCell>
        <mxCell id="MtlIt6yfHSOycYd4frSq-168" value="" style="shape=tableRow;horizontal=0;startSize=0;swimlaneHead=0;swimlaneBody=0;strokeColor=inherit;top=0;left=0;bottom=0;right=0;collapsible=0;dropTarget=0;fillColor=none;points=[[0,0.5],[1,0.5]];portConstraint=eastwest;" parent="MtlIt6yfHSOycYd4frSq-167" vertex="1">
          <mxGeometry width="80" height="23" as="geometry" />
        </mxCell>
        <mxCell id="MtlIt6yfHSOycYd4frSq-169" value="Name&lt;span style=&quot;white-space: pre;&quot;&gt;&#x9;&lt;/span&gt;" style="shape=partialRectangle;html=1;whiteSpace=wrap;connectable=0;strokeColor=inherit;overflow=hidden;fillColor=none;top=0;left=0;bottom=0;right=0;pointerEvents=1;" parent="MtlIt6yfHSOycYd4frSq-168" vertex="1">
          <mxGeometry width="80" height="23" as="geometry">
            <mxRectangle width="80" height="23" as="alternateBounds" />
          </mxGeometry>
        </mxCell>
        <mxCell id="MtlIt6yfHSOycYd4frSq-170" value="" style="shape=tableRow;horizontal=0;startSize=0;swimlaneHead=0;swimlaneBody=0;strokeColor=inherit;top=0;left=0;bottom=0;right=0;collapsible=0;dropTarget=0;fillColor=none;points=[[0,0.5],[1,0.5]];portConstraint=eastwest;fontSize=8;" parent="MtlIt6yfHSOycYd4frSq-167" vertex="1">
          <mxGeometry y="23" width="80" height="24" as="geometry" />
        </mxCell>
        <mxCell id="MtlIt6yfHSOycYd4frSq-171" value="SRM Server" style="shape=partialRectangle;html=1;whiteSpace=wrap;connectable=0;strokeColor=inherit;overflow=hidden;fillColor=none;top=0;left=0;bottom=0;right=0;pointerEvents=1;" parent="MtlIt6yfHSOycYd4frSq-170" vertex="1">
          <mxGeometry width="80" height="24" as="geometry">
            <mxRectangle width="80" height="24" as="alternateBounds" />
          </mxGeometry>
        </mxCell>
        <mxCell id="MtlIt6yfHSOycYd4frSq-172" value="" style="shape=tableRow;horizontal=0;startSize=0;swimlaneHead=0;swimlaneBody=0;strokeColor=inherit;top=0;left=0;bottom=0;right=0;collapsible=0;dropTarget=0;fillColor=none;points=[[0,0.5],[1,0.5]];portConstraint=eastwest;" parent="MtlIt6yfHSOycYd4frSq-167" vertex="1">
          <mxGeometry y="47" width="80" height="23" as="geometry" />
        </mxCell>
        <mxCell id="MtlIt6yfHSOycYd4frSq-173" value="VCSA" style="shape=partialRectangle;html=1;whiteSpace=wrap;connectable=0;strokeColor=inherit;overflow=hidden;fillColor=none;top=0;left=0;bottom=0;right=0;pointerEvents=1;" parent="MtlIt6yfHSOycYd4frSq-172" vertex="1">
          <mxGeometry width="80" height="23" as="geometry">
            <mxRectangle width="80" height="23" as="alternateBounds" />
          </mxGeometry>
        </mxCell>
        <mxCell id="MtlIt6yfHSOycYd4frSq-174" value="Recovery Site" style="text;html=1;align=center;verticalAlign=middle;resizable=0;points=[];autosize=1;strokeColor=none;fillColor=none;" parent="1" vertex="1">
          <mxGeometry x="1082" y="12" width="92" height="26" as="geometry" />
        </mxCell>
        <mxCell id="MtlIt6yfHSOycYd4frSq-176" value="SRM Database" style="text;html=1;align=center;verticalAlign=middle;resizable=0;points=[];autosize=1;strokeColor=none;fillColor=none;fontSize=7;" parent="1" vertex="1">
          <mxGeometry x="1150" y="320" width="70" height="20" as="geometry" />
        </mxCell>
        <mxCell id="MtlIt6yfHSOycYd4frSq-177" value="" style="shape=flexArrow;endArrow=classic;startArrow=classic;html=1;rounded=0;" parent="1" edge="1">
          <mxGeometry width="100" height="100" relative="1" as="geometry">
            <mxPoint x="492" y="352" as="sourcePoint" />
            <mxPoint x="708" y="350" as="targetPoint" />
          </mxGeometry>
        </mxCell>
        <mxCell id="MtlIt6yfHSOycYd4frSq-178" value="Site Pairing" style="edgeLabel;html=1;align=center;verticalAlign=middle;resizable=0;points=[];fontSize=13;" parent="MtlIt6yfHSOycYd4frSq-177" vertex="1" connectable="0">
          <mxGeometry x="-0.0091" y="2" relative="1" as="geometry">
            <mxPoint as="offset" />
          </mxGeometry>
        </mxCell>
        <mxCell id="MtlIt6yfHSOycYd4frSq-181" value="" style="image;aspect=fixed;perimeter=ellipsePerimeter;html=1;align=center;shadow=0;dashed=0;spacingTop=3;image=img/lib/active_directory/tunnel.svg;" parent="1" vertex="1">
          <mxGeometry x="515.88" y="664.1" width="168" height="33.6" as="geometry" />
        </mxCell>
        <mxCell id="MtlIt6yfHSOycYd4frSq-183" value="VXLAN TUNNEL" style="text;html=1;align=center;verticalAlign=middle;resizable=0;points=[];autosize=1;strokeColor=none;fillColor=none;fontStyle=1" parent="1" vertex="1">
          <mxGeometry x="550.88" y="631.1" width="105" height="26" as="geometry" />
        </mxCell>
        <mxCell id="MtlIt6yfHSOycYd4frSq-184" value="" style="verticalLabelPosition=bottom;html=1;verticalAlign=top;align=center;strokeColor=none;fillColor=#00BEF2;shape=mxgraph.azure.cloud;" parent="1" vertex="1">
          <mxGeometry x="284" y="136.85" width="169" height="92.15" as="geometry" />
        </mxCell>
        <mxCell id="MtlIt6yfHSOycYd4frSq-186" value="AWS / AZURE / IBM CLOUD" style="text;html=1;align=center;verticalAlign=middle;resizable=0;points=[];autosize=1;strokeColor=none;fillColor=none;fontSize=12;fontColor=#ffffff;fontStyle=1" parent="1" vertex="1">
          <mxGeometry x="280" y="191" width="165" height="26" as="geometry" />
        </mxCell>
        <mxCell id="MtlIt6yfHSOycYd4frSq-187" value="" style="verticalLabelPosition=bottom;html=1;verticalAlign=top;align=center;strokeColor=none;fillColor=#00BEF2;shape=mxgraph.azure.cloud;" parent="1" vertex="1">
          <mxGeometry x="777" y="136.85" width="169" height="92.15" as="geometry" />
        </mxCell>
        <mxCell id="MtlIt6yfHSOycYd4frSq-188" value="AWS / AZURE / IBM CLOUD" style="text;html=1;align=center;verticalAlign=middle;resizable=0;points=[];autosize=1;strokeColor=none;fillColor=none;fontSize=11;fontColor=#ffffff;fontStyle=1" parent="1" vertex="1">
          <mxGeometry x="783" y="191" width="155" height="25" as="geometry" />
        </mxCell>
      </root>
    </mxGraphModel>
  </diagram>
</mxfile>
